<?xml version="1.0" encoding="utf-8"?>
<!-- Generator: Adobe Illustrator 24.3.0, SVG Export Plug-In . SVG Version: 6.00 Build 0)  -->
<svg version="1.1" xmlns="http://www.w3.org/2000/svg" xmlns:xlink="http://www.w3.org/1999/xlink" x="0px" y="0px"
	 viewBox="0 0 1200 1200" style="enable-background:new 0 0 1200 1200;" xml:space="preserve">
<style type="text/css">
	.st0{fill:#363B44;}
	.st1{fill:#FFFFFF;}
</style>
<g id="Layer_1">
	<rect class="st0" width="1200" height="1200"/>
</g>
<g id="Layer_2">
	<g>
		<path class="st1" d="M600.47,116.84c-168.44,0-304.98,132.69-304.98,296.38c0,40.41,8.34,78.93,23.41,114.04h0l0,0
			c4.79,11.15,10.25,21.96,16.35,32.37l265.22,524.94l265.22-524.94c25.3-43.19,39.76-93.16,39.76-146.41
			C905.45,249.54,768.91,116.84,600.47,116.84z M464.28,684.9c0,0,123.5,85.32,275.35,0C739.63,684.9,602.8,790.43,464.28,684.9z
			 M600.47,668.06c-141.85,0-257.25-113.31-257.25-252.6s115.4-252.6,257.25-252.6c141.85,0,257.26,113.31,257.26,252.6
			S742.32,668.06,600.47,668.06z"/>
		<path class="st1" d="M600.47,196.55c-122.6,0-222.33,98.21-222.33,218.92s99.74,218.92,222.33,218.92
			c122.59,0,222.33-98.21,222.33-218.92S723.06,196.55,600.47,196.55z M464.28,500.25l0.79-222.39c0.03-8.52,7.25-15.46,16.04-15.43
			l150.13,0.5c8.79,0.03,15.96,7.02,15.93,15.54l-0.79,222.39c-0.03,8.52-7.25,15.46-16.04,15.43l-150.13-0.5
			C471.41,515.76,464.25,508.76,464.28,500.25z M513.64,536.26l-1.41-12.47L640,523.84c8.79,0,15.98-6.96,15.99-15.48l0.1-222.39
			c0-1.28-0.18-2.51-0.48-3.7c7.19,0.85,13.15,6.4,13.98,13.67l25.05,221.06c0.96,8.46-5.4,16.15-14.14,17.08l-149.23,15.87
			C522.53,550.89,514.6,544.72,513.64,536.26z M727.67,564.6c0,8.52-7.19,15.48-15.98,15.48H561.56c-8.79,0-15.98-6.97-15.98-15.48
			v-6.12L691.09,543c8.74-0.93,15.1-8.62,14.14-17.08l-22.57-199.2h29.02c8.79,0,15.98,6.97,15.98,15.48V564.6z"/>
		<polygon class="st1" points="576.43,368.43 557.38,328.6 536.33,367.48 491.34,372.72 523,404.13 514.24,447.21 553.14,428.56 
			549.27,457.26 559.41,457.26 556.63,428.69 594.44,449.12 587.88,405.68 621.1,375.81 		"/>
	</g>
</g>
</svg>
